<?xml version="1.0" standalone="no"?>
<!DOCTYPE svg PUBLIC "-//W3C//DTD SVG 20010904//EN"
 "http://www.w3.org/TR/2001/REC-SVG-20010904/DTD/svg10.dtd">
<svg version="1.0" xmlns="http://www.w3.org/2000/svg"
 width="2048.000000pt" height="2048.000000pt" viewBox="0 0 2048.000000 2048.000000"
 preserveAspectRatio="xMidYMid meet">
<metadata>
Created by potrace 1.14, written by Peter Selinger 2001-2017
</metadata>
<g transform="translate(0.000000,2048.000000) scale(0.100000,-0.100000)"
fill="#000000" stroke="none">
<path d="M4809 20475 c-2 -2 -31 -5 -64 -8 -282 -25 -614 -128 -885 -278 -454
-249 -825 -656 -1038 -1139 -57 -129 -134 -375 -157 -498 -32 -177 -39 -254
-39 -442 -1 -269 10 -378 63 -601 38 -162 123 -398 181 -504 9 -16 32 -59 51
-95 150 -287 425 -595 714 -802 327 -234 767 -392 1175 -423 132 -10 386 -4
461 10 13 3 48 8 78 11 98 10 384 87 466 124 11 5 43 18 72 29 107 41 381 192
458 253 236 185 340 284 479 456 210 261 398 646 461 940 2 9 10 49 19 87 15
74 33 193 41 285 5 59 6 335 1 385 -29 285 -91 545 -178 745 -76 174 -138 288
-241 440 -363 539 -945 904 -1602 1005 -96 15 -505 31 -516 20z"/>
<path d="M8730 20359 c-150 -11 -284 -49 -383 -110 -26 -16 -52 -29 -57 -29
-6 0 -10 -4 -10 -10 0 -5 -4 -10 -10 -10 -34 0 -234 -210 -293 -307 -90 -151
-157 -342 -174 -500 -9 -87 -10 -2878 0 -2953 12 -99 13 -110 30 -181 62 -260
238 -521 439 -652 116 -76 185 -106 316 -138 74 -17 146 -18 1682 -16 l1605 2
79 23 c371 105 640 418 733 852 17 80 18 173 18 1545 0 803 -3 1490 -7 1527
-16 150 -79 337 -158 467 -173 289 -444 467 -740 487 -115 8 -2963 11 -3070 3z"/>
<path d="M14007 20364 c-1 -1 -49 -4 -107 -7 -232 -13 -430 -105 -601 -277
-150 -153 -245 -331 -306 -578 -15 -61 -17 -204 -20 -1562 -1 -842 2 -1515 7
-1540 4 -25 11 -65 15 -90 13 -92 67 -233 147 -380 30 -57 132 -181 193 -235
128 -114 248 -179 405 -220 l95 -24 1600 2 c880 2 1611 5 1625 9 14 3 43 10
65 15 142 35 310 135 429 256 181 185 291 429 321 710 8 77 8 2857 0 2922 -12
99 -16 121 -31 185 -19 75 -69 210 -96 258 -10 17 -28 49 -39 69 -43 76 -85
130 -159 204 -168 168 -358 259 -575 276 -56 4 -2962 11 -2968 7z"/>
<path d="M3415 15195 c-408 -78 -721 -433 -801 -909 -11 -66 -13 -357 -11
-1561 2 -814 6 -1496 11 -1515 43 -191 60 -241 128 -372 151 -294 424 -491
738 -534 61 -8 3081 -8 3150 1 122 14 237 52 345 114 221 127 398 357 479 622
57 188 55 109 55 1709 0 1599 2 1542 -55 1720 -58 184 -155 345 -282 470 -122
119 -254 196 -417 244 -69 21 -83 21 -1670 23 -1297 1 -1613 -1 -1670 -12z"/>
<path d="M8564 15185 c-50 -13 -100 -28 -110 -33 -10 -6 -45 -22 -77 -37 -126
-58 -289 -204 -378 -337 -68 -103 -146 -275 -163 -361 -22 -109 -27 -141 -33
-202 -10 -97 -8 -2853 1 -2940 4 -38 12 -90 18 -115 5 -25 11 -52 13 -60 9
-47 60 -180 91 -243 100 -198 258 -361 444 -458 92 -49 184 -78 295 -94 58 -8
3091 -7 3167 1 345 38 657 298 794 660 23 62 56 185 70 259 3 22 8 695 9 1495
2 1173 0 1473 -11 1550 -56 401 -295 734 -626 872 -170 71 -85 68 -1838 68
l-1575 -1 -91 -24z"/>
<path d="M13780 10116 c-30 -7 -80 -20 -110 -30 -59 -20 -214 -99 -237 -122
-8 -8 -18 -14 -23 -14 -5 0 -49 -39 -97 -88 -173 -172 -277 -373 -324 -627
-17 -94 -18 -184 -18 -1560 0 -1509 1 -1529 40 -1666 7 -24 13 -46 13 -49 1
-3 12 -34 26 -70 133 -358 445 -621 789 -666 14 -1 728 -3 1586 -4 1680 -1
1622 -2 1775 51 122 42 233 113 340 219 191 188 304 433 335 724 7 67 8 2888
1 2926 -3 14 -7 43 -10 65 -13 89 -46 215 -71 270 -79 176 -145 276 -252 382
-126 125 -288 218 -434 249 -13 2 -44 9 -69 14 -72 15 -3192 11 -3260 -4z"/>
<path d="M3411 10045 c-134 -29 -219 -65 -330 -139 -245 -163 -426 -464 -469
-779 -4 -29 -7 -722 -7 -1542 0 -1384 1 -1495 18 -1565 9 -41 19 -85 22 -98 9
-38 50 -142 83 -210 143 -293 418 -506 714 -552 85 -13 3209 -10 3268 4 105
24 229 78 330 145 129 85 283 271 358 432 29 62 79 212 88 264 2 14 7 37 11
53 4 15 9 700 10 1522 2 1604 4 1554 -48 1725 -70 234 -221 454 -403 585 -83
61 -230 126 -333 150 -86 19 -128 19 -1668 19 -1306 -1 -1591 -3 -1644 -14z"/>
<path d="M8669 10056 c-2 -2 -24 -6 -49 -9 -59 -7 -211 -60 -269 -93 -307
-177 -519 -520 -548 -884 -9 -113 -8 -2878 1 -2955 51 -436 328 -800 703 -923
133 -44 121 -44 1788 -40 l1590 3 75 23 c324 99 566 344 684 692 64 188 63
165 63 1730 0 1072 -3 1438 -12 1510 -21 159 -59 281 -128 410 -137 257 -343
431 -607 512 l-75 23 -1606 3 c-883 1 -1607 0 -1610 -2z"/>
<path d="M3411 4895 c-347 -76 -624 -334 -744 -695 -33 -99 -40 -127 -56 -241
-13 -85 -13 -2932 0 -3019 38 -266 158 -506 343 -684 66 -64 196 -156 220
-156 8 0 17 -4 21 -9 9 -15 113 -52 200 -72 75 -17 176 -17 1690 -16 l1610 2
67 22 c276 88 483 266 617 528 36 70 83 195 96 253 3 12 7 32 10 45 3 12 8 45
13 72 9 64 9 2991 0 3065 -16 122 -79 302 -149 422 -151 258 -370 421 -649
483 -95 21 -3192 21 -3289 0z"/>
<path d="M8590 4890 c-165 -35 -304 -109 -435 -232 -185 -172 -311 -426 -348
-698 -9 -73 -12 -423 -11 -1515 1 -1269 3 -1501 19 -1555 2 -8 7 -31 10 -50
11 -64 65 -212 108 -294 143 -275 384 -468 667 -532 19 -5 755 -9 1635 -11
1566 -2 1602 -2 1684 17 350 84 627 361 737 739 14 47 27 102 30 121 3 19 8
46 11 60 4 14 7 680 9 1480 2 1520 1 1539 -41 1700 -50 192 -160 385 -300 525
-123 124 -320 225 -496 254 -45 8 -546 11 -1630 10 -1477 0 -1569 -1 -1649
-19z"/>
</g>
</svg>
